<svg height="512pt" viewBox="-30 0 512 512" width="512pt" xmlns="http://www.w3.org/2000/svg"><path d="m445.28125 19.714844v472.570312c0 6.671875-5.460938 12.132813-12.132812 12.132813h-413.4375c-6.671876 0-12.128907-5.460938-12.128907-12.132813v-472.570312c0-6.671875 5.457031-12.132813 12.128907-12.132813h413.4375c6.671874 0 12.132812 5.460938 12.132812 12.132813zm0 0" fill="#60c8dd"/><path d="m445.28125 19.714844v472.570312c0 6.671875-5.460938 12.132813-12.132812 12.132813h-376.539063c-6.671875 0-12.132813-5.460938-12.132813-12.132813v-472.570312c0-6.671875 5.460938-12.132813 12.132813-12.132813h376.539063c6.671874 0 12.132812 5.460938 12.132812 12.132813zm0 0" fill="#7cd2e3"/><g fill="#2cb3cd"><path d="m97.566406 127.757812h-40.894531c-6.671875 0-12.132813-5.460937-12.132813-12.128906v-40.898437c0-6.671875 5.460938-12.128907 12.132813-12.128907h40.894531c6.671875 0 12.132813 5.457032 12.132813 12.128907v40.898437c0 6.667969-5.460938 12.128906-12.132813 12.128906zm0 0"/><path d="m97.566406 234.972656h-40.894531c-6.671875 0-12.132813-5.460937-12.132813-12.132812v-40.894532c0-6.671874 5.460938-12.132812 12.132813-12.132812h40.894531c6.671875 0 12.132813 5.460938 12.132813 12.132812v40.894532c0 6.671875-5.460938 12.132812-12.132813 12.132812zm0 0"/><path d="m97.566406 342.183594h-40.894531c-6.671875 0-12.132813-5.457032-12.132813-12.128906v-40.898438c0-6.671875 5.460938-12.128906 12.132813-12.128906h40.894531c6.671875 0 12.132813 5.457031 12.132813 12.128906v40.898438c0 6.671874-5.460938 12.128906-12.132813 12.128906zm0 0"/><path d="m97.566406 449.398438h-40.894531c-6.671875 0-12.132813-5.457032-12.132813-12.128907v-40.898437c0-6.667969 5.460938-12.128906 12.132813-12.128906h40.894531c6.671875 0 12.132813 5.460937 12.132813 12.128906v40.898437c0 6.671875-5.460938 12.128907-12.132813 12.128907zm0 0"/></g><path d="m56.671875 135.339844h40.894531c10.871094 0 19.710938-8.84375 19.710938-19.710938v-40.898437c0-10.867188-8.839844-19.710938-19.710938-19.710938h-40.894531c-10.871094 0-19.714844 8.84375-19.714844 19.710938v40.898437c0 10.867188 8.84375 19.710938 19.714844 19.710938zm-4.550781-60.609375c0-2.464844 2.082031-4.546875 4.550781-4.546875h40.894531c2.464844 0 4.550782 2.082031 4.550782 4.546875v40.898437c0 2.464844-2.085938 4.546875-4.550782 4.546875h-40.894531c-2.46875 0-4.550781-2.082031-4.550781-4.546875zm0 0"/><path d="m408.320312 63.960938h-253.902343c-4.1875 0-7.582031 3.394531-7.582031 7.582031s3.394531 7.582031 7.582031 7.582031h253.902343c4.1875 0 7.582032-3.394531 7.582032-7.582031s-3.394532-7.582031-7.582032-7.582031zm0 0"/><path d="m154.417969 126.398438h171.84375c4.1875 0 7.582031-3.394532 7.582031-7.582032s-3.394531-7.582031-7.582031-7.582031h-171.84375c-4.1875 0-7.582031 3.394531-7.582031 7.582031s3.394531 7.582032 7.582031 7.582032zm0 0"/><path d="m408.320312 111.234375h-51.734374c-4.1875 0-7.582032 3.394531-7.582032 7.582031s3.394532 7.582032 7.582032 7.582032h51.734374c4.1875 0 7.582032-3.394532 7.582032-7.582032s-3.394532-7.582031-7.582032-7.582031zm0 0"/><path d="m36.957031 222.839844c0 10.871094 8.84375 19.710937 19.714844 19.710937h40.894531c10.871094 0 19.710938-8.839843 19.710938-19.710937v-40.894532c0-10.871093-8.839844-19.710937-19.710938-19.710937h-40.894531c-10.871094 0-19.714844 8.839844-19.714844 19.710937zm15.164063-40.894532c0-2.464843 2.082031-4.550781 4.550781-4.550781h40.894531c2.464844 0 4.550782 2.085938 4.550782 4.550781v40.894532c0 2.464844-2.085938 4.550781-4.550782 4.550781h-40.894531c-2.46875 0-4.550781-2.085937-4.550781-4.550781zm0 0"/><path d="m154.417969 186.339844h253.902343c4.1875 0 7.582032-3.394532 7.582032-7.582032s-3.394532-7.582031-7.582032-7.582031h-253.902343c-4.1875 0-7.582031 3.394531-7.582031 7.582031s3.394531 7.582032 7.582031 7.582032zm0 0"/><path d="m154.417969 233.609375h253.902343c4.1875 0 7.582032-3.390625 7.582032-7.582031 0-4.1875-3.394532-7.578125-7.582032-7.578125h-253.902343c-4.1875 0-7.582031 3.390625-7.582031 7.578125 0 4.191406 3.394531 7.582031 7.582031 7.582031zm0 0"/><path d="m36.957031 330.054688c0 10.871093 8.84375 19.710937 19.714844 19.710937h40.894531c10.871094 0 19.710938-8.839844 19.710938-19.710937v-40.894532c0-10.871094-8.839844-19.710937-19.710938-19.710937h-40.894531c-10.871094 0-19.714844 8.839843-19.714844 19.710937zm15.164063-40.894532c0-2.464844 2.082031-4.550781 4.550781-4.550781h40.894531c2.464844 0 4.550782 2.085937 4.550782 4.550781v40.894532c0 2.464843-2.085938 4.550781-4.550782 4.550781h-40.894531c-2.46875 0-4.550781-2.085938-4.550781-4.550781zm0 0"/><path d="m154.417969 293.550781h253.902343c4.1875 0 7.582032-3.390625 7.582032-7.578125 0-4.191406-3.394532-7.582031-7.582032-7.582031h-253.902343c-4.1875 0-7.582031 3.390625-7.582031 7.582031 0 4.1875 3.394531 7.578125 7.582031 7.578125zm0 0"/><path d="m154.417969 340.824219h253.902343c4.1875 0 7.582032-3.394531 7.582032-7.582031s-3.394532-7.582032-7.582032-7.582032h-253.902343c-4.1875 0-7.582031 3.394532-7.582031 7.582032s3.394531 7.582031 7.582031 7.582031zm0 0"/><path d="m36.957031 437.269531c0 10.867188 8.84375 19.710938 19.714844 19.710938h40.894531c10.871094 0 19.710938-8.84375 19.710938-19.710938v-40.898437c0-10.867188-8.839844-19.710938-19.710938-19.710938h-40.894531c-10.871094 0-19.714844 8.84375-19.714844 19.710938zm15.164063-40.898437c0-2.464844 2.082031-4.546875 4.550781-4.546875h40.894531c2.464844 0 4.550782 2.082031 4.550782 4.546875v40.898437c0 2.464844-2.085938 4.546875-4.550782 4.546875h-40.894531c-2.46875 0-4.550781-2.082031-4.550781-4.546875zm0 0"/><path d="m154.417969 400.765625h253.902343c4.1875 0 7.582032-3.394531 7.582032-7.582031s-3.394532-7.582032-7.582032-7.582032h-253.902343c-4.1875 0-7.582031 3.394532-7.582031 7.582032s3.394531 7.582031 7.582031 7.582031zm0 0"/><path d="m154.417969 448.039062h253.902343c4.1875 0 7.582032-3.394531 7.582032-7.582031s-3.394532-7.582031-7.582032-7.582031h-253.902343c-4.1875 0-7.582031 3.394531-7.582031 7.582031s3.394531 7.582031 7.582031 7.582031zm0 0"/><path d="m445.28125 333.542969c-4.1875 0-7.582031 3.390625-7.582031 7.578125v151.167968c0 2.464844-2.085938 4.546876-4.550781 4.546876h-413.4375c-2.464844 0-4.546876-2.082032-4.546876-4.546876v-376.195312c0-4.1875-3.394531-7.578125-7.582031-7.578125s-7.582031 3.390625-7.582031 7.578125v376.195312c0 10.867188 8.84375 19.710938 19.710938 19.710938h413.4375c10.871093 0 19.710937-8.84375 19.710937-19.710938v-151.167968c0-4.1875-3.390625-7.578125-7.578125-7.578125zm0 0"/><path d="m433.148438 0h-413.4375c-10.867188 0-19.710938 8.84375-19.710938 19.710938v66.058593c0 4.1875 3.394531 7.582031 7.582031 7.582031s7.582031-3.394531 7.582031-7.582031v-66.058593c0-2.464844 2.082032-4.546876 4.546876-4.546876h413.4375c2.464843 0 4.550781 2.082032 4.550781 4.546876v291.085937c0 4.1875 3.394531 7.582031 7.582031 7.582031s7.578125-3.394531 7.578125-7.582031v-291.085937c0-10.867188-8.839844-19.710938-19.710937-19.710938zm0 0"/></svg>